<?xml version="1.0" encoding="UTF-8"?>
<svg width="54px" height="16px" viewBox="0 0 54 16" version="1.1" xmlns="http://www.w3.org/2000/svg" xmlns:xlink="http://www.w3.org/1999/xlink">
    <title>形状结合</title>
    <g id="主页" stroke="none" stroke-width="1" fill="none" fill-rule="evenodd">
        <g id="首页" transform="translate(-24.000000, -22.000000)" fill="#2257BF">
            <g id="logo" transform="translate(24.000000, 22.000000)">
                <g id="编组" transform="translate(0.400000, 0.400000)">
                    <path d="M30.4078777,3.60801523 C30.8506362,3.43675215 31.22631,3.61906446 31.6556515,4.17626138 C34.1306792,3.16920292 35.7478131,3.47068908 37.0752992,5.16832446 C38.1762762,6.57789062 38.2102131,8.675666 37.1494869,10.1207475 C36.5165238,10.9825875 35.6878315,11.5311029 34.6247377,11.7370922 C33.5813746,11.9391352 32.6248269,11.722886 31.6351315,11.1270168 L31.6351315,11.1270168 L31.6351315,11.9817537 C31.6351315,12.6707522 31.6509162,13.3597506 31.6296069,14.0479598 C31.6075085,14.8056214 30.8451115,15.262586 30.2831792,14.8324552 C30.0740331,14.6714522 29.9248685,14.3281368 29.8988238,14.0534845 C29.8419992,13.4402522 29.8783038,12.8183383 29.8783038,12.1995814 L29.8783038,12.1995814 L29.8783038,4.86131369 C29.8783038,4.83290138 29.8790931,4.80448908 29.8783038,4.776866 C29.8688331,4.30253831 29.86173,3.81795062 30.4078777,3.60801523 Z M19.6147523,4.88096554 C20.6083938,3.723164 22.6327708,2.91104554 24.68556,4.19275631 C24.9570554,3.969404 25.1583092,3.70027631 25.4211231,3.60793631 C25.9956831,3.40668246 26.4802708,3.83128862 26.4842169,4.49503169 C26.4928985,5.71991785 26.4865846,6.94401477 26.4865846,8.16811169 L26.4865846,8.16811169 L26.4865846,10.658924 C26.4865846,11.3147748 26.2955908,11.6801886 25.8938723,11.7946271 C25.4353292,11.9256394 25.1590985,11.7733178 24.7565908,11.1395655 C23.6603492,11.8364563 22.4780815,12.0416563 21.2326754,11.602844 C20.4300277,11.3195102 19.7741769,10.8207163 19.3037954,10.0993594 C18.2430692,8.47275477 18.3930231,6.30473785 19.6147523,4.88096554 Z M11.9193577,3.64211 C14.7361223,3.09438385 16.6302762,5.22609615 16.6973608,7.40910846 C16.7107777,7.87791154 16.5197838,8.10836692 16.06203,8.20544231 C15.8860315,8.24332538 15.7013515,8.25595308 15.5198285,8.25674231 C14.0155546,8.26068846 12.5112808,8.25911 11.0077962,8.25911 L11.0077962,8.25911 L10.5129485,8.25911 C10.5989746,8.86208231 10.8712592,9.28984538 11.2800808,9.62921462 C12.1758577,10.3718808 13.5838454,10.4121315 14.5380254,9.73812846 C15.1409977,9.31194385 15.8189469,9.54239923 15.8844531,10.1919362 C15.9199685,10.5352515 15.7210823,10.74203 15.4811562,10.9282885 C13.3447085,12.5864623 9.71819308,12.0387362 8.81689154,8.78631615 C8.17761462,6.47465923 9.58797,4.09591769 11.9193577,3.64211 Z M0.874625538,0.204287005 C1.40577785,0.207456615 1.74672554,0.575238154 1.748304,1.17268585 C1.75303938,2.88847354 1.74988246,4.60505046 1.74988246,6.32004892 C1.74988246,7.43128585 1.76172092,8.54252277 1.74435785,9.65297046 C1.738044,9.99391815 1.86037477,10.0886258 2.18474862,10.0854689 C3.53512246,10.0728412 4.88549631,10.0783658 6.23508092,10.082312 C6.82305785,10.0838905 7.23819323,10.4666674 7.2327231,10.9859812 C7.22635477,11.4800397 6.82069015,11.816252 6.22008554,11.8170412 C4.49088092,11.8186197 2.76167631,11.8178305 1.03089323,11.8170412 C0.257447077,11.816252 0.00568246154,11.5692228 0.00331476923,10.7776243 C-0.00220984615,9.18811354 0.00173630769,7.599392 0.00173630769,6.00988123 L0.00173630769,6.00988123 C0.00331476923,4.37854123 -0.00220984615,2.74720123 0.00568246154,1.11586123 C0.00883938461,0.531041231 0.339527077,0.201932 0.874625538,0.204287005 Z M42.1028704,0.205364511 L42.2198211,0.207693385 C42.7170365,0.240051846 43.0319395,0.635456462 43.0327288,1.25026723 C43.0358857,3.36067031 43.0343072,5.47028415 43.0343072,7.58068723 C43.0343072,8.66351185 43.0382534,9.74712569 43.0319395,10.8299503 C43.0287826,11.4297657 42.694938,11.8014934 42.1685211,11.8164888 C41.5837011,11.8322734 41.2427534,11.4794872 41.2395965,10.8204795 C41.2332826,9.20255646 41.238018,7.58463338 41.2372288,5.96671031 C41.2372288,4.37719954 41.2332826,2.78768877 41.2395965,1.198178 C41.2427534,0.538381077 41.6200057,0.169021077 42.2198211,0.207693385 Z M47.7629834,4.03380523 C48.538008,3.58473292 49.3753818,3.44898523 50.2419572,3.62735138 C51.8377818,3.95646062 52.9616465,5.36208062 52.990848,7.06681908 C53.0121572,8.31774985 53.0026865,9.56946985 52.9932157,10.8211898 C52.9884803,11.4462606 52.6593711,11.8148314 52.1455818,11.8132529 C51.6333711,11.8124637 51.3003157,11.4423145 51.2955803,10.8196114 C51.2837418,9.58288677 51.256908,8.34379446 51.3018942,7.10785908 C51.3381988,6.11974215 50.559228,5.26895138 49.5363849,5.23974985 C48.5490572,5.21133754 47.7850818,6.02503446 47.778768,7.10549138 C47.7700865,8.34300523 47.7779788,9.58130831 47.7748218,10.8180329 C47.7732434,11.430476 47.4496588,11.8093068 46.9358695,11.8148314 C46.3991926,11.8211452 46.0614018,11.4770406 46.0582449,10.855916 C46.0471957,8.73288523 46.0512094,6.60906523 46.0566665,4.48603446 C46.0574557,4.11193908 46.1900465,3.76941292 46.5562495,3.62814062 C46.9319234,3.48213292 47.3044403,3.54211446 47.5917203,3.87122369 C47.6367065,3.92252369 47.6903742,3.96593138 47.7629834,4.03380523 Z M33.9120623,5.27880979 C32.6169346,5.28118446 31.6406562,6.31270908 31.6358981,7.68360292 C31.6303962,9.06317831 32.6374546,10.1483706 33.9136408,10.1405211 C35.1598362,10.1333752 36.1708408,9.06317831 36.1779822,7.74358446 C36.1850469,6.34348908 35.2040331,5.27565985 33.9120623,5.27880979 Z M24.7589585,7.25891785 C24.5995338,6.15794092 23.5908969,5.01197785 22.1063538,5.29925785 C21.0408923,5.50524708 20.3108538,6.462584 20.3100643,7.71193631 C20.3092754,9.47507785 21.7851369,10.5594809 23.3730692,9.96361169 C24.3525046,9.59504092 24.9357462,8.48143631 24.7589585,7.25891785 Z M12.6018955,5.05001735 L12.44025,5.05956846 C11.4237208,5.15743308 10.4584915,6.09819615 10.4663838,6.87953462 L10.4663838,6.87953462 L15.2151854,6.87953462 C14.9223808,5.78645 13.6209392,4.94670846 12.44025,5.05956846 Z" id="形状结合"></path>
                </g>
            </g>
        </g>
    </g>
</svg>